Coordinates
version=1
nRows=14
nColumns=45
inDegrees=yes

Units are S.I. units (second, meters, Newtons, ...)
If the header above contains a line with 'inDegrees', this indicates whether rotational values are in degrees (yes) or radians (no).

endheader
time	HipInputX	HipInputY	HipInputZ	TranslationInputX	TranslationInputY	TranslationInputZ	SpineInputX	SpineInputY	TorsoInput	LEInput	LFInput	LScapInputX	LScapInputY	LSInputX	LSInputY	LSInputZ	LWInputX	LWInputY	REInput	RFInput	RScapInputX	RScapInputY	RSInputX	RSInputY	RSInputZ	RWInputX	RWInputY	NeckInputX	NeckInputY	NeckInputZ	hip_flexion_r	hip_adduction_r	hip_rotation_r	knee_angle_r	ankle_angle_r	subtalar_angle_r	mtp_angle_r	hip_flexion_l	hip_adduction_l	hip_rotation_l	knee_angle_l	ankle_angle_l	subtalar_angle_l	mtp_angle_l
      1.36111111	    -90.33525065	     -4.99468887	   -137.47725427	      1.09321756	      0.81148376	     -0.00884811	     14.81088713	      3.26298207	     10.39435806	    -77.27387888	     62.94718792	     24.29485038	      8.06535882	    279.91022098	    -23.21364092	   -626.98481456	    101.09695433	    -40.02149753	    -74.87863994	    871.71833345	     23.50615673	     -7.58925473	   -173.03342716	    164.45730795	    214.21656723	   -752.95823318	    143.42505706	     39.48717652	     -1.90194452	    -44.51343607	     78.59941522	     -8.26077990	    107.91891292	    -23.37254170	    -71.63019089	      0.00000000	      0.00000000	     96.55950782	    -39.82301615	     78.16050997	     29.93239981	    317.09252209	      0.00000000	      0.00000000
      1.36388889	    -90.34172852	     -5.00103931	   -137.04432375	      1.09337446	      0.81115204	     -0.00889144	     14.79700614	      2.45258183	     11.87384826	    -82.11507672	     66.38715342	     23.93759067	      8.45329491	    280.62157698	    -24.08071469	   -628.30215535	    100.59400347	    -42.00359246	    -73.29914103	    871.57107632	     23.53904421	     -4.96795271	   -172.35441352	    166.60377097	    218.20967493	   -753.62262422	    143.03575952	     39.78925484	     -2.26655359	    -45.69647290	     78.39099134	     -8.21415657	    107.91147078	    -23.33533537	    -72.13298947	      0.00000000	      0.00000000	     96.68610674	    -39.96649437	     78.25284407	     29.97602900	    316.88575881	      0.00000000	      0.00000000
      1.36666667	    -90.35883856	     -5.02296611	   -136.57954118	      1.09351592	      0.81081854	     -0.00896825	     14.78663276	      1.75861643	     12.93807486	    -86.09118529	     68.07146816	     23.71520724	      8.97566186	    281.08420440	    -24.72498685	   -629.49636907	    101.04945900	    -43.21738006	    -72.67343473	    871.28924688	     23.32600186	     -2.25435139	   -172.03587698	    168.01748443	    221.05616673	   -754.19696456	    142.72814246	     39.98271941	     -2.43315577	    -46.47669261	     78.18495213	     -8.23120346	    107.91919534	    -23.33183361	    -72.38743719	      0.00000000	      0.00000000	     96.84552733	    -40.07048406	     78.38333770	     30.02822343	    316.69333809	      0.00000000	      0.00000000
      1.36944444	    -90.39439277	     -5.03425610	   -136.26485669	      1.09345333	      0.81064955	     -0.00886657	     14.77903060	      1.06917644	     14.13204453	    -88.92624595	     69.49925195	     23.74663800	      9.12533099	    281.26446764	    -25.10212814	   -630.82101341	    100.97052648	    -43.31039991	    -73.08184435	    870.95061613	     23.02863605	      0.25541465	   -172.45241456	    168.93520804	    222.69624249	   -754.84190548	    142.45155827	     40.22936022	     -2.55876395	    -46.97446779	     77.98774157	     -8.21487098	    107.95253979	    -23.35092312	    -72.56740018	      0.00000000	      0.00000000	     96.93168459	    -40.13563336	     78.47649631	     30.02687678	    316.53192679	      0.00000000	      0.00000000
      1.37222222	    -90.38757504	     -5.10347811	   -135.89245025	      1.09332284	      0.81029590	     -0.00877837	     14.73194609	      0.29499861	     15.69676295	    -92.34702256	     72.64190403	     23.87492021	      9.14772700	    281.07385581	    -25.43634260	   -632.52615340	     99.55094311	    -44.03207015	    -73.24782236	    871.07558027	     22.99727678	      1.94050826	   -172.22682830	    170.22621506	    224.81523313	   -755.75413847	    142.29518845	     40.29844314	     -3.26627951	    -47.89085093	     77.76112873	     -7.92668552	    108.01190748	    -23.28344960	    -73.05157740	      0.00000000	      0.00000000	     97.11789703	    -40.16383662	     78.61202076	     30.06009404	    316.20387695	      0.00000000	      0.00000000
      1.37500000	    -90.42416251	     -5.11203516	   -135.60068744	      1.09310114	      0.81010312	     -0.00869227	     14.72026987	     -0.34915942	     16.88281089	    -94.41853989	     73.51892440	     23.92443812	      9.25325864	    280.91991106	    -25.59593046	   -634.10329155	     99.49704231	    -43.51300547	    -74.29173130	    870.91319111	     22.68330912	      4.34395241	   -172.93774292	    170.90146262	    225.47749983	   -756.25166335	    141.82520027	     40.43030315	     -3.51957785	    -48.10298126	     77.55651403	     -7.90560378	    108.04989304	    -23.31115710	    -73.19006731	      0.00000000	      0.00000000	     97.17189825	    -40.18754769	     78.68337430	     30.07602896	    316.09771000	      0.00000000	      0.00000000
      1.37777778	    -90.40658231	     -5.19465668	   -135.32274164	      1.09280297	      0.80975802	     -0.00857903	     14.59992124	     -1.16924895	     18.56078678	    -97.67083320	     76.72685560	     24.22573020	      8.93891520	    280.59847777	    -25.79134520	   -635.98860376	     97.81690603	    -44.01295589	    -74.96110147	    871.75973845	     22.48274877	      5.87906039	   -172.80373181	    171.90892475	    226.76732467	   -757.43073599	    141.49538718	     40.55922867	     -4.18800033	    -48.92449239	     77.28864662	     -7.32418306	    108.15153256	    -23.22066931	    -73.77533352	      0.00000000	      0.00000000	     97.35666941	    -40.01443591	     78.81449556	     30.12305569	    315.69042010	      0.00000000	      0.00000000
      1.38055556	    -90.42799945	     -5.24348964	   -135.09615909	      1.09250331	      0.80947435	     -0.00842015	     14.49015742	     -1.89663885	     20.10330415	   -101.11568315	     79.31406727	     24.30890451	      8.74480886	    280.34530006	    -25.92592638	   -637.82702054	     96.89970725	    -44.67528701	    -75.63897825	    872.74613499	     22.30371215	      7.69571843	   -172.61967937	    172.82389813	    228.18063544	   -758.48872787	    140.94097378	     40.66386777	     -4.71297341	    -49.40253322	     76.97880767	     -6.77508429	    108.25967600	    -23.17610359	    -74.25907770	      0.00000000	      0.00000000	     97.45513988	    -39.92291805	     78.91025038	     30.15756737	    315.35210109	      0.00000000	      0.00000000
      1.38333333	    -90.41592283	     -5.29942632	   -134.84074115	      1.09212710	      0.80915957	     -0.00827731	     14.37273715	     -2.64710732	     21.57733528	   -105.06654301	     81.40708964	     24.38499028	      8.56081554	    280.21839274	    -26.09825270	   -639.52552762	     96.82272423	    -45.88476594	    -76.13176259	    873.38668477	     22.09461600	      9.47794392	   -172.11149597	    173.73312245	    229.92537467	   -758.93989327	    140.37896580	     40.76560736	     -5.22169878	    -49.73380045	     76.77586864	     -6.49888216	    108.32865226	    -23.15740215	    -74.52070493	      0.00000000	      0.00000000	     97.54419019	    -39.89870831	     78.95918552	     30.20266678	    315.17360498	      0.00000000	      0.00000000
      1.38611111	    -90.44180200	     -5.36200084	   -134.68825464	      1.09172294	      0.80884784	     -0.00810519	     14.19780866	     -3.38763098	     23.27551959	   -109.27610656	     85.31176516	     24.42936562	      8.23105935	    280.13111122	    -26.24502414	   -641.14142207	     95.18572801	    -47.40498977	    -76.56272483	    875.00552927	     22.01758778	     11.05611388	   -171.46276903	    174.65225442	    232.03772625	   -760.23868923	    139.80072247	     40.82909785	     -5.80666066	    -50.26985141	     76.42374536	     -5.71096643	    108.47880658	    -23.09305595	    -75.11866729	      0.00000000	      0.00000000	     97.63675966	    -39.76232002	     79.05042898	     30.21118435	    314.73139413	      0.00000000	      0.00000000
      1.38888889	    -90.42964722	     -5.42680367	   -134.47655626	      1.09129001	      0.80847363	     -0.00787989	     14.07171188	     -4.11019601	     24.70217686	   -113.37757227	     87.28277133	     24.48340926	      8.05123206	    280.17346500	    -26.45040099	   -642.49658254	     95.41541673	    -49.00152983	    -76.97237429	    875.67448390	     21.80636756	     12.72176734	   -170.77901185	    175.47372384	    234.07693755	   -760.53811735	    139.31131792	     40.82657769	     -6.25731133	    -50.45250284	     76.23852848	     -5.45433216	    108.56736642	    -23.09165196	    -75.36035212	      0.00000000	      0.00000000	     97.70189326	    -39.76088948	     79.07729134	     30.26210617	    314.51305508	      0.00000000	      0.00000000
      1.39166667	    -90.43093532	     -5.50233529	   -134.33534297	      1.09076898	      0.80813271	     -0.00758330	     13.89440990	     -4.82940455	     26.35381944	   -117.06112054	     90.30695889	     24.58356374	      7.74987767	    280.09568588	    -26.62104721	   -643.90007298	     94.34239133	    -50.38173366	    -77.35706657	    876.74772542	     21.90288721	     14.02423632	   -170.16140842	    176.40614874	    236.21379713	   -761.42778519	    138.91354465	     40.77077424	     -6.86077201	    -50.79977483	     75.95788512	     -4.83649938	    108.71324663	    -23.05697574	    -75.80349894	      0.00000000	      0.00000000	     97.77552755	    -39.70823596	     79.11506270	     30.28975735	    314.15900583	      0.00000000	      0.00000000
      1.39444444	    -90.44097750	     -5.56286360	   -134.19911451	      1.09019271	      0.80767967	     -0.00723375	     13.76757170	     -5.47912546	     27.73419506	   -120.31835044	     93.34631820	     24.73542691	      7.59860207	    280.07389041	    -26.74274274	   -645.18170777	     93.02642120	    -51.39990195	    -77.99758400	    878.44387803	     21.76867250	     15.63480000	   -169.83458578	    177.13494859	    237.79638476	   -762.86596067	    138.46029806	     40.64464800	     -7.23619818	    -50.92506635	     75.53494554	     -3.83785392	    108.89026573	    -22.93309247	    -76.63682585	      0.00000000	      0.00000000	     97.83853603	    -39.62955837	     79.16837711	     30.30111025	    313.71278283	      0.00000000	      0.00000000
      1.39722222	    -90.44173641	     -5.61677118	   -133.99809315	      1.08961228	      0.80729879	     -0.00680515	     13.70256350	     -6.07447409	     28.77093637	   -122.55021765	     94.06961309	     24.94047897	      7.53642982	    279.83866527	    -26.61368115	   -646.76170491	     93.32718422	    -51.22097860	    -79.05782450	    878.45005864	     21.68139614	     17.54246092	   -170.20614555	    177.85557455	    238.70191847	   -763.00812583	    137.92569896	     40.42969891	     -7.38498918	    -50.80762033	     75.36536154	     -3.78660528	    108.97595870	    -23.00004575	    -76.71583656	      0.00000000	      0.00000000	     97.87258238	    -39.67164583	     79.19312539	     30.34370056	    313.62137341	      0.00000000	      0.00000000
